<?xml version="1.0" standalone="no"?>
<!DOCTYPE svg PUBLIC "-//W3C//DTD SVG 20010904//EN"
 "http://www.w3.org/TR/2001/REC-SVG-20010904/DTD/svg10.dtd">
<svg version="1.0" xmlns="http://www.w3.org/2000/svg"
 width="1187.000000pt" height="1280.000000pt" viewBox="0 0 1187.000000 1280.000000"
 preserveAspectRatio="xMidYMid meet">
<metadata>
Created by potrace 1.15, written by Peter Selinger 2001-2017
</metadata>
<g transform="translate(0.000000,1280.000000) scale(0.100000,-0.100000)"
fill="#000000" stroke="none">
<path d="M10776 12784 c-79 -15 -181 -60 -236 -104 -70 -55 -195 -283 -255
-464 -111 -335 -48 -612 185 -813 117 -101 165 -125 320 -159 106 -24 333 -24
420 -1 96 26 181 71 206 109 26 40 132 209 187 298 101 162 160 350 161 510 2
206 -58 331 -214 445 -202 148 -538 226 -774 179z m294 -74 c269 -27 495 -143
572 -295 30 -60 43 -139 43 -275 -1 -155 -19 -236 -85 -377 -38 -82 -140 -239
-224 -345 -45 -56 -45 -56 -113 -65 -37 -4 -153 -8 -258 -7 -214 1 -288 15
-423 79 -225 106 -327 344 -262 610 20 84 32 117 122 330 30 72 61 152 68 178
10 38 21 54 50 72 76 48 185 82 305 95 99 10 100 10 205 0z"/>
<path d="M10843 12623 c-21 -4 -23 -10 -23 -58 l0 -54 43 -12 c26 -7 71 -9
119 -4 l76 6 72 -68 c71 -66 141 -155 175 -222 10 -21 20 -72 24 -137 9 -124
21 -144 87 -144 41 0 43 1 61 48 14 36 18 74 18 163 0 113 -1 116 -38 193 -91
183 -288 298 -506 295 -47 -1 -96 -4 -108 -6z"/>
<path d="M10850 12443 c0 -18 78 -192 99 -222 21 -29 93 -71 123 -71 9 0 21
14 27 31 32 91 -13 200 -101 245 -36 19 -148 32 -148 17z"/>
<path d="M8930 12683 c0 -5 0 -161 0 -349 0 -187 -2 -343 -5 -346 -3 -3 -24 4
-47 15 -51 26 -143 33 -194 17 -56 -19 -117 -81 -150 -153 -23 -51 -28 -76
-29 -142 0 -105 29 -166 98 -209 91 -56 230 -34 290 46 81 108 103 222 118
603 6 160 13 292 14 293 2 2 25 -12 50 -31 99 -76 186 -101 244 -70 48 25 49
39 4 46 -72 12 -140 56 -263 173 -66 63 -123 114 -125 114 -3 0 -5 -3 -5 -7z
m-94 -774 c19 -11 34 -24 34 -29 0 -20 -43 -188 -57 -220 l-14 -35 -14 40
c-19 53 -46 72 -92 66 -9 -1 -13 17 -13 64 0 78 16 86 55 25 28 -44 36 -48 55
-25 16 20 -3 68 -37 95 -14 11 -22 24 -18 30 10 17 66 11 101 -11z"/>
<path d="M4230 11703 c-126 -12 -294 -40 -410 -68 -259 -64 -551 -180 -686
-273 -55 -38 -166 -142 -151 -142 3 0 39 13 79 29 40 15 190 68 333 116 458
154 577 196 740 262 202 81 210 88 95 76z"/>
<path d="M6090 11494 c-596 -33 -1116 -136 -1725 -344 -721 -247 -1392 -595
-1890 -982 -133 -104 -365 -324 -450 -428 -62 -75 -68 -105 -30 -138 14 -12
25 -28 25 -36 0 -8 -33 -61 -74 -118 -202 -283 -410 -697 -538 -1068 -304
-887 -384 -1886 -227 -2848 14 -85 19 -136 13 -142 -6 -6 -48 -23 -95 -38
l-84 -28 -17 -51 c-75 -221 -97 -616 -53 -908 58 -379 216 -774 423 -1058 l49
-67 156 -5 c149 -4 189 0 257 29 13 5 18 -6 29 -56 6 -35 33 -105 58 -157 38
-79 59 -108 131 -181 108 -107 180 -154 453 -296 120 -62 242 -128 272 -147
54 -35 56 -35 72 -17 25 27 107 43 157 30 21 -6 38 -16 36 -22 -7 -20 -80 -39
-165 -45 -46 -3 -83 -9 -83 -13 0 -15 108 -60 170 -71 143 -25 296 7 664 138
98 35 181 62 183 59 6 -6 -74 -176 -119 -252 -19 -33 -81 -133 -137 -223 -55
-90 -101 -168 -101 -173 0 -4 17 -1 38 8 20 9 91 36 157 61 66 24 162 64 214
88 70 34 91 40 86 27 -15 -34 -17 -60 -6 -67 18 -10 34 8 77 87 41 75 104 148
128 148 17 0 26 -39 96 -392 53 -268 108 -452 166 -555 34 -62 132 -178 142
-169 2 3 -17 50 -43 104 -50 104 -55 147 -20 147 14 0 27 -14 41 -45 47 -99
69 -96 77 10 7 84 36 160 62 160 20 0 50 -55 153 -276 48 -104 106 -216 127
-248 45 -68 138 -163 143 -147 2 6 -10 41 -27 77 -30 65 -39 104 -23 104 5 0
15 -15 23 -32 9 -22 21 -33 34 -33 18 0 20 8 23 70 2 38 -7 137 -19 220 -24
158 -30 308 -13 325 7 7 35 -25 84 -92 194 -268 443 -519 654 -661 69 -46 61
-9 -19 83 -77 89 -105 182 -37 125 l32 -27 0 31 c0 17 -13 64 -30 106 -30 76
-37 119 -21 129 16 10 94 -55 261 -218 171 -167 261 -241 342 -282 59 -30 68
-30 68 0 0 44 21 40 78 -17 32 -30 67 -60 79 -66 27 -14 70 -14 78 -1 4 6 -38
79 -93 163 -55 84 -112 177 -127 207 -32 63 -67 161 -60 168 9 9 92 -49 142
-100 29 -29 96 -111 150 -182 54 -71 113 -141 132 -155 l35 -26 -16 25 c-21
33 -79 211 -72 221 3 5 11 9 18 9 45 0 57 76 31 185 -8 33 -14 76 -14 95 l-1
35 29 -50 c15 -27 52 -93 81 -145 29 -52 105 -174 169 -270 l116 -175 6 175
c3 96 6 176 7 178 9 12 23 -7 38 -50 21 -57 81 -128 108 -128 23 0 18 14 -55
173 -58 127 -85 205 -77 228 5 14 160 -129 314 -289 119 -125 298 -292 311
-292 5 0 15 5 23 10 12 9 8 17 -27 48 -39 34 -55 62 -36 62 4 0 95 -89 202
-198 201 -202 297 -280 438 -351 77 -38 84 -39 74 -3 -15 50 -39 87 -100 155
-79 88 -105 137 -70 137 4 0 21 -12 38 -26 28 -23 32 -24 38 -9 4 11 -18 65
-60 149 -53 105 -87 200 -87 241 0 19 21 -3 44 -45 28 -51 50 -70 84 -70 19 0
19 1 1 65 -10 36 -31 145 -48 243 -17 97 -39 208 -50 247 -11 38 -18 72 -15
74 2 2 26 -11 53 -30 155 -108 191 -130 200 -124 16 10 13 72 -6 108 -9 18
-33 53 -55 78 -42 50 -51 77 -19 58 27 -17 48 -5 79 45 15 25 32 45 37 46 26
0 125 -56 199 -113 44 -35 97 -73 116 -84 l35 -22 -3 112 c-1 78 -7 118 -17
134 -29 44 0 22 71 -54 51 -54 76 -74 88 -70 22 9 20 45 -4 107 -24 62 -24 59
-1 53 11 -3 21 2 24 11 4 9 18 21 32 26 23 9 24 12 14 32 -6 13 -20 33 -31 45
-23 25 -17 43 15 43 12 0 74 -25 139 -56 129 -62 177 -73 234 -54 l37 13 -59
27 c-73 33 -140 88 -125 103 6 6 11 29 11 52 0 40 -1 41 -60 69 -59 28 -120
84 -120 109 1 33 15 37 68 22 61 -18 119 -61 228 -166 75 -72 157 -125 176
-113 13 8 -21 66 -68 114 -47 50 -81 117 -66 132 5 5 27 12 49 15 31 4 56 -2
114 -28 41 -17 95 -34 122 -37 41 -4 47 -2 47 14 0 10 -25 43 -55 74 -37 37
-52 59 -46 68 6 11 15 10 45 -4 26 -13 39 -15 47 -7 19 19 1 46 -56 87 -56 40
-72 63 -56 79 16 16 95 -9 226 -71 122 -57 197 -74 260 -58 40 10 29 23 -41
46 -64 22 -125 62 -113 75 4 3 36 -8 70 -26 l64 -32 -76 74 c-41 41 -145 151
-231 244 -86 94 -188 197 -227 230 -38 33 -67 62 -65 64 3 3 125 8 272 12 297
8 385 21 491 71 90 43 203 158 124 126 -16 -6 -62 -11 -103 -11 -61 0 -85 5
-131 26 -53 26 -98 62 -88 72 3 2 75 24 162 49 188 54 256 85 321 145 l49 46
-44 5 c-43 5 -44 6 -41 38 3 39 -11 41 -113 12 -84 -24 -113 -25 -143 -4 -34
23 -27 34 23 34 60 0 120 25 134 57 6 14 9 28 6 31 -3 3 -97 -1 -209 -8 -314
-20 -463 -3 -524 63 l-21 23 51 2 c78 3 113 16 228 82 58 33 129 67 158 76
l52 15 -17 30 c-35 60 -70 71 -237 79 -128 6 -158 10 -194 29 -24 12 -42 24
-39 27 2 3 71 20 153 39 239 56 354 101 429 166 30 27 35 36 30 61 -6 23 0 37
33 76 156 187 284 462 403 865 l53 177 41 0 c61 0 151 26 235 67 57 29 97 60
166 128 137 136 194 261 194 424 0 146 -54 464 -146 860 -52 225 -82 321 -111
359 -36 48 -114 96 -223 137 -160 61 -209 86 -203 101 3 7 -8 40 -23 73 l-29
60 -60 3 -60 3 -12 85 c-135 923 -478 1645 -1100 2315 -276 297 -637 598
-1110 924 l-162 112 -3 62 -3 62 -80 42 c-252 134 -647 248 -1055 307 -265 39
-769 63 -1010 50z m560 -968 c379 -48 699 -132 991 -259 81 -35 145 -57 184
-61 374 -43 676 -211 1020 -567 191 -197 369 -430 576 -754 254 -395 359 -634
384 -870 l8 -69 -53 47 c-69 62 -165 118 -289 167 -297 120 -582 102 -707 -44
-19 -22 -36 -38 -38 -35 -2 2 -24 54 -49 114 -57 139 -136 314 -194 430 -64
129 -187 345 -195 345 -5 0 -8 -69 -8 -152 -1 -154 -11 -266 -30 -339 -9 -31
-15 -39 -34 -39 -37 0 -51 26 -51 95 0 60 -6 73 -158 378 -86 175 -157 321
-157 327 0 16 -36 11 -52 -7 -8 -10 -18 -30 -22 -45 -3 -16 -11 -28 -16 -28
-12 0 -53 56 -80 110 -22 44 -67 100 -81 100 -4 0 -10 -8 -14 -17 -20 -48 -23
-111 -13 -271 9 -125 9 -175 1 -183 -14 -14 -111 106 -177 220 -26 45 -51 79
-57 76 -22 -14 -43 -75 -49 -140 l-5 -70 -27 50 c-14 28 -42 104 -63 170 -20
66 -50 145 -65 175 -31 61 -83 116 -99 105 -8 -4 -9 -55 -5 -169 5 -119 4
-168 -5 -185 -12 -22 -14 -21 -94 51 -45 41 -140 121 -212 178 -71 57 -150
121 -174 142 -50 43 -63 46 -91 18 -25 -25 -26 -72 -1 -167 11 -40 15 -73 11
-73 -18 0 -127 109 -220 220 -105 124 -157 175 -220 215 -66 41 -78 15 -35
-77 43 -91 28 -139 -20 -65 -40 60 -133 155 -255 260 -58 50 -131 115 -162
144 -31 29 -61 53 -67 53 -21 0 -51 -44 -51 -76 0 -17 11 -57 25 -88 14 -31
25 -61 25 -67 0 -6 -20 1 -45 15 -33 20 -45 23 -45 13 0 -8 30 -74 67 -147 65
-129 67 -136 71 -221 3 -58 1 -89 -6 -89 -14 0 -52 49 -52 67 0 7 -7 30 -15
50 l-16 37 -19 -32 c-24 -40 -57 -42 -99 -6 l-31 26 0 -44 c0 -23 -12 -90 -26
-148 -16 -62 -27 -137 -28 -183 -1 -63 -4 -77 -16 -75 -15 3 -28 40 -46 123
-9 39 -10 40 -54 43 -24 2 -48 9 -52 15 -5 9 -12 7 -24 -5 -11 -11 -19 -43
-24 -101 -5 -47 -11 -95 -15 -106 -8 -26 -46 -28 -86 -4 -24 15 -29 24 -29 58
-1 38 -1 39 -16 20 -15 -19 -16 -19 -27 -2 -33 52 -33 52 -52 12 -9 -21 -26
-90 -37 -154 -20 -123 -47 -195 -80 -212 -29 -16 -46 -4 -57 40 -6 23 -16 59
-21 81 -14 53 -45 70 -74 41 -19 -19 -22 -36 -26 -169 -3 -81 -10 -155 -14
-165 -8 -16 -11 -16 -48 5 -46 26 -78 63 -205 233 -92 124 -163 195 -222 224
-32 15 -34 15 -51 -7 -22 -26 -34 -112 -28 -184 8 -76 3 -88 -32 -75 -16 6
-31 9 -34 7 -2 -3 5 -52 15 -110 24 -129 38 -450 20 -450 -6 0 -29 9 -51 20
-22 11 -47 20 -56 20 -9 0 -18 -9 -21 -20 -11 -41 -44 -14 -78 63 -13 31 -27
57 -30 57 -9 0 -27 -42 -41 -98 -14 -54 -37 -92 -56 -92 -4 0 -17 15 -28 32
-19 32 -36 98 -61 242 l-12 68 -43 -66 c-23 -37 -57 -102 -76 -144 -30 -70
-33 -86 -33 -179 0 -115 -2 -117 -70 -89 -45 19 -69 60 -96 163 -12 46 -25 83
-29 83 -4 0 -13 -6 -20 -14 -6 -8 -18 -12 -25 -10 -19 8 -45 -46 -52 -105 -3
-26 2 -107 12 -180 9 -73 15 -135 13 -137 -3 -2 -36 31 -74 74 -100 112 -204
202 -233 202 -14 0 5 -51 73 -191 52 -106 83 -219 61 -219 -29 0 -75 38 -109
90 -34 54 -61 80 -81 80 -17 0 11 -82 61 -177 31 -59 54 -116 54 -134 l0 -30
-39 22 c-21 12 -79 57 -127 101 -109 99 -123 107 -141 82 -28 -38 -16 -77 53
-173 51 -70 68 -102 71 -135 11 -92 -62 -109 -228 -56 -111 35 -171 38 -218 9
l-33 -20 99 -102 c141 -145 208 -250 252 -391 12 -38 20 -70 19 -71 -2 -1 -48
-17 -103 -35 -199 -65 -270 -120 -270 -212 l0 -48 -45 0 c-64 -1 -117 -28
-200 -104 -39 -36 -78 -66 -86 -66 -12 0 -14 36 -14 218 0 926 219 1633 753
2437 54 83 103 154 107 158 4 5 30 -3 56 -17 77 -41 82 -39 167 78 361 491
1041 909 1867 1145 331 95 630 151 995 186 188 18 741 13 915 -9z"/>
<path d="M4662 9823 c-21 -39 -23 -107 -5 -143 15 -30 23 -35 52 -35 l34 0 4
70 c2 45 -1 79 -9 95 -17 31 -62 39 -76 13z"/>
<path d="M7160 9800 c0 -31 27 -90 45 -96 8 -3 22 -3 31 0 15 6 15 8 2 24 -9
9 -19 28 -23 42 -15 49 -55 71 -55 30z"/>
<path d="M4110 9657 c0 -70 18 -107 52 -107 19 0 20 5 16 66 -3 55 -8 70 -27
85 -13 11 -27 19 -32 19 -5 0 -9 -28 -9 -63z"/>
<path d="M8995 8721 c-17 -29 61 -51 123 -35 25 7 29 29 6 38 -25 9 -122 7
-129 -3z"/>
<path d="M8821 8540 c-24 -11 -42 -22 -40 -24 2 -2 87 -25 189 -51 122 -30
215 -48 275 -51 l90 -6 -25 21 c-34 27 -193 97 -266 116 -81 21 -169 19 -223
-5z"/>
<path d="M11304 10907 c-25 -54 -29 -74 -29 -154 0 -87 2 -94 27 -119 19 -20
39 -28 77 -32 69 -6 96 3 119 40 44 72 40 166 -8 218 -37 39 -50 38 -50 -5 0
-49 -21 -85 -77 -134 -40 -36 -48 -40 -56 -25 -13 23 -2 81 28 149 18 40 24
67 20 86 -11 47 -21 42 -51 -24z"/>
<path d="M9973 10690 c-25 -10 -43 -39 -43 -69 0 -26 33 -35 102 -29 40 4 57
12 75 32 13 15 23 33 23 40 0 30 -104 47 -157 26z"/>
<path d="M566 10538 c-32 -54 -47 -123 -35 -154 12 -34 67 -33 99 1 20 21 25
39 28 94 4 62 2 70 -19 85 -35 24 -46 20 -73 -26z"/>
<path d="M1829 10247 c-41 -28 -79 -82 -79 -114 0 -58 98 -55 158 5 42 42 69
111 49 124 -25 16 -94 8 -128 -15z"/>
<path d="M400 9071 c-77 -24 -138 -81 -173 -160 -28 -64 -28 -170 0 -233 l22
-48 67 0 c88 0 132 25 170 94 24 44 29 64 31 146 2 55 -2 118 -9 150 -13 53
-15 55 -48 57 -19 1 -46 -2 -60 -6z m40 -181 c0 -139 -25 -180 -108 -180 -39
0 -40 1 -51 46 -27 106 38 224 125 224 l34 0 0 -90z"/>
<path d="M11527 6953 c-36 -64 -44 -379 -13 -521 28 -133 81 -272 126 -332 9
-12 10 -10 5 10 -4 14 -11 167 -15 340 -9 328 -14 370 -58 457 -23 43 -38 59
-45 46z"/>
<path d="M11776 6570 c-7 -157 -3 -194 22 -222 23 -27 38 -22 57 18 13 28 16
51 11 93 -3 31 -9 102 -12 159 l-7 102 -32 0 -32 0 -7 -150z"/>
<path d="M10 5514 c-13 -32 -13 -66 0 -98 13 -36 64 -35 108 3 30 26 31 30 21
60 -21 59 -111 84 -129 35z"/>
<path d="M711 5078 c-30 -79 -45 -230 -45 -453 0 -250 13 -361 60 -503 25 -76
72 -177 79 -170 3 2 0 44 -6 94 -7 51 -12 292 -13 569 l-1 480 -33 3 c-26 3
-34 -1 -41 -20z"/>
<path d="M10791 4681 c-55 -171 -119 -331 -157 -392 -14 -23 -46 -50 -86 -72
-131 -74 -198 -134 -198 -179 0 -26 25 -22 104 17 180 89 323 259 386 460 24
75 31 240 13 300 -9 27 -14 15 -62 -134z"/>
<path d="M373 4548 c6 -131 25 -222 53 -263 12 -17 14 8 14 188 l0 207 -37 0
-36 0 6 -132z"/>
<path d="M10894 4318 c-94 -105 -154 -221 -154 -300 l0 -29 31 18 c55 33 101
108 150 248 15 44 31 88 34 98 13 32 -13 17 -61 -35z"/>
<path d="M940 2702 c-64 -32 -100 -115 -85 -202 6 -37 9 -40 63 -57 56 -18 57
-19 55 -53 -2 -19 -6 -88 -9 -152 l-6 -118 -57 -26 c-31 -14 -162 -69 -291
-121 -129 -52 -247 -101 -262 -109 l-28 -15 0 44 c0 66 17 144 70 324 27 90
52 192 56 227 14 134 -46 209 -187 234 -49 10 -56 8 -77 -11 -48 -45 -66 -95
-70 -202 -3 -78 1 -113 15 -160 l19 -60 67 3 c82 3 86 -3 58 -86 -18 -54 -21
-86 -21 -261 0 -224 2 -230 61 -145 18 26 38 44 49 44 31 0 32 -18 3 -32 -20
-9 -29 -23 -33 -48 -4 -20 -10 -41 -14 -48 -14 -23 48 6 264 124 147 80 259
125 361 143 l65 13 0 166 c-1 219 20 286 116 372 39 35 40 37 33 83 -13 85
-76 147 -150 147 -16 0 -46 -8 -65 -18z m-652 -204 c19 -19 14 -82 -9 -112
-25 -32 -87 -39 -74 -8 4 9 11 37 16 62 5 25 11 51 14 58 6 15 37 16 53 0z
m651 -464 c-19 -23 -102 -63 -198 -95 -95 -33 -115 -35 -86 -13 37 29 120 67
205 95 102 34 96 33 79 13z"/>
<path d="M2200 1310 c0 -5 11 -10 24 -10 46 0 182 -50 242 -88 79 -51 147
-130 188 -216 55 -116 68 -181 73 -378 l5 -176 -36 -75 c-40 -83 -122 -169
-198 -205 -240 -116 -539 -23 -655 203 -31 60 -53 137 -53 187 0 20 -5 40 -11
44 -13 8 -4 -83 17 -170 62 -253 313 -429 557 -388 105 18 183 60 256 138 70
74 111 149 143 261 33 114 33 343 0 458 -66 229 -219 384 -408 415 -77 13
-144 13 -144 0z"/>
<path d="M2027 1202 c-4 -18 -41 -103 -84 -187 -42 -85 -73 -158 -70 -162 13
-13 78 62 107 122 31 66 64 199 58 237 -3 20 -5 18 -11 -10z"/>
<path d="M2264 1126 c-18 -8 -35 -19 -39 -25 -3 -7 22 -43 58 -84 85 -96 136
-167 198 -276 28 -50 55 -88 60 -86 4 3 15 25 25 50 51 134 -38 339 -178 409
-58 29 -79 31 -124 12z"/>
<path d="M2174 934 c13 -51 65 -147 112 -206 42 -53 49 -58 85 -58 21 0 39 4
39 8 0 26 -43 128 -69 165 -32 43 -107 100 -150 112 -22 7 -23 5 -17 -21z"/>
<path d="M1253 208 c-26 -30 -43 -81 -43 -132 0 -30 3 -37 10 -26 5 8 10 32
10 52 0 28 5 38 20 43 29 9 80 54 80 71 0 23 -54 17 -77 -8z"/>
<path d="M1422 219 c2 -7 18 -17 35 -21 47 -12 67 -50 60 -118 -5 -60 4 -93
18 -70 4 7 10 43 13 80 l4 67 -43 30 c-53 37 -93 51 -87 32z"/>
</g>
</svg>
